<svg xmlns="http://www.w3.org/2000/svg" data-name="Layer 1" viewBox="0 0 128 128" id="health"><path d="M47.854 81.773a40.877 40.877 0 0 0 3.816-1.208c.056-.02.109-.059.164-.084a10.768 10.768 0 0 1 4.2 8.563 2 2 0 0 0 4.002-.02 14.583 14.583 0 0 0-5.546-11.533 30.682 30.682 0 0 0 2.35-6.252c3.998-16.914-2.19-29.02-18.39-35.982-8.135-3.495-22.054-8.295-19.571-19.77a2 2 0 0 0-3.246-1.95C8.108 19.884 3.043 25.66 1.049 34.824A41.398 41.398 0 0 0 8.26 69.069c6.521 8.857 17.83 13.985 29.564 13.985a39.724 39.724 0 0 0 10.03-1.28ZM11.483 66.699A37.505 37.505 0 0 1 4.96 35.675c1.427-6.563 4.756-11.242 9.66-15.89 1.064 11.017 13.576 15.42 22.249 19.146 14.552 6.253 19.66 16.227 16.077 31.389a28.978 28.978 0 0 1-1.817 4.96c-3.716-2.093-12.342-7.425-17.492-14.42a2 2 0 0 0-3.223 2.37c4.917 6.679 12.473 11.82 16.98 14.515-.182.051-.37.112-.552.16-10.95 2.859-26.687.572-35.36-11.206Z"></path><path d="M117.735 18.016a38.455 38.455 0 0 0-53.428-2.34.411.411 0 0 1-.539 0 38.428 38.428 0 0 0-43.192-5.353 5.983 5.983 0 0 1 2.211 6.012c-1.47 6.794 6.039 10.544 15.254 14.407.69.29 1.356.57 1.987.84C51.237 36.398 58.238 43.661 60.852 53h14.05a1.978 1.978 0 0 0 .733-.567l3.643-15.104A3.028 3.028 0 0 1 82.232 35a2.99 2.99 0 0 1 2.829 2.436l4.225 22.624 5.708-15.562c.02-.05.04-.102.063-.15a2.95 2.95 0 0 1 2.676-1.764h.001a2.95 2.95 0 0 1 2.678 1.761l3.422 7.855a3.591 3.591 0 0 0 .564.799h22.546a37.974 37.974 0 0 0-9.209-34.984Z"></path><path d="m100.186 53.842-2.366-5.43-6.117 16.674c-.02.052-.04.102-.063.152A2.939 2.939 0 0 1 88.974 67a2.907 2.907 0 0 1-.318-.017 3.005 3.005 0 0 1-2.597-2.42l-4.03-21.58-2.533 10.5A5.247 5.247 0 0 1 75 57H61.68a41.006 41.006 0 0 1-.948 15.159 36.918 36.918 0 0 1-1.425 4.413 18.272 18.272 0 0 1 4.73 12.433 6 6 0 0 1-5.973 6.029h-.02a6.018 6.018 0 0 1-6.01-5.97 6.653 6.653 0 0 0-1.262-3.968c-.642.2-1.277.383-1.91.547a43.7 43.7 0 0 1-11.038 1.41 44.314 44.314 0 0 1-12.692-1.849l35.777 35.53a4.496 4.496 0 0 0 6.257 0l49.28-48.94A38.976 38.976 0 0 0 125.778 57H104c-2.322 0-3.755-3.03-3.814-3.158Z"></path></svg>