<svg xmlns="http://www.w3.org/2000/svg" viewBox="0 0 98 98" id="medical-application"><g><g><g><path fill="#d4e1f4" d="M83.2,25.3V48h-19l-6.3-7L50,56.5l-9-23L33.1,49H13.8V25.3a6,6,0,0,1,6-6H77.2A6,6,0,0,1,83.2,25.3Z"></path></g><g><polygon fill="#d4e1f4" points="83.2 48 83.2 64 58.5 64 58.5 69.9 38.5 69.9 38.5 64 13.8 64 13.8 49 15.5 49 33.1 49 41 33.5 50 56.5 57.9 41 64.2 48 81.5 48 83.2 48"></polygon></g><g><path fill="#00acea" d="M90.5,64v8.7a6,6,0,0,1-6,6h-71a6,6,0,0,1-6-6V64h31v5.9h20V64h32Z"></path></g></g><path fill="#083863" d="M90.5,63H85V25.3c0-4.1-3.7-7.3-7.8-7.3H19.8c-4.1,0-7.8,3.2-7.8,7.3V63H7.5c-.8,0-1.5.2-1.5,1v8.7A7.4,7.4,0,0,0,13.5,80h71A7.4,7.4,0,0,0,92,72.7V64C92,63.2,91.3,63,90.5,63ZM19.8,21H77.2A4.6,4.6,0,0,1,82,25.3V47H63.9L58,40.2a2,2,0,0,0-1.3-.6,1.3,1.3,0,0,0-1.1.8L49.2,52.9,41.4,33a1.4,1.4,0,0,0-1.3-1,1.6,1.6,0,0,0-1.4,1.1L31.2,48H15V25.3A4.6,4.6,0,0,1,19.8,21ZM15,51H32.1a1.6,1.6,0,0,0,1.3-1.1l6.4-12.6,7.8,19.8a1.3,1.3,0,0,0,1.3.9H49a1.3,1.3,0,0,0,1.3-.8l6.9-13.6,4.9,5.7c.3.3.7.7,1.1.7H82V63H58.5c-.8,0-1.5.2-1.5,1v4H40V64c0-.8-.7-1-1.5-1H15ZM89,72.7A4.3,4.3,0,0,1,84.5,77h-71A4.3,4.3,0,0,1,9,72.7V66H37v3.9c0,.8.7,1.1,1.5,1.1h20c.8,0,1.5-.3,1.5-1.1V66H89Z"></path></g></svg>