<svg xmlns="http://www.w3.org/2000/svg" xmlns:xlink="http://www.w3.org/1999/xlink" viewBox="0 0 1000 1000" width="1000" height="1000" style="width: 100%; height: 100%; transform: translate3d(0px, 0px, 0px);" preserveAspectRatio="xMidYMid meet" id="Online Health Report">
  <defs>
    <clipPath id="__lottie_element_15630">
      <rect width="1000" height="1000" x="0" y="0" />
    </clipPath>
    <g id="__lottie_element_15641">
      <g style="display: block;" transform="matrix(1,0,0,1,500,499.52862548828125)" opacity="1">
        <g opacity="1" transform="matrix(1,0,0,1,4,60)">
          <path fill="rgb(216,162,83)" fill-opacity="1" d=" M348,-284 C348,-284 348,284 348,284 C348,284 -348,284 -348,284 C-348,284 -348,-284 -348,-284 C-348,-284 348,-284 348,-284z" />
          <path stroke-linecap="butt" stroke-linejoin="miter" fill-opacity="0" stroke-miterlimit="4" stroke="rgb(0,0,0)" stroke-opacity="1" stroke-width="0" d=" M348,-284 C348,-284 348,284 348,284 C348,284 -348,284 -348,284 C-348,284 -348,-284 -348,-284 C-348,-284 348,-284 348,-284z" />
        </g>
      </g>
    </g>
    <g id="__lottie_element_15647">
      <g style="display: block;" transform="matrix(1,0,0,1,500,499.52862548828125)" opacity="1">
        <g opacity="1" transform="matrix(1,0,0,1,4,60)">
          <path fill="rgb(216,162,83)" fill-opacity="1" d=" M348,-284 C348,-284 348,284 348,284 C348,284 -348,284 -348,284 C-348,284 -348,-284 -348,-284 C-348,-284 348,-284 348,-284z" />
          <path stroke-linecap="butt" stroke-linejoin="miter" fill-opacity="0" stroke-miterlimit="4" stroke="rgb(0,0,0)" stroke-opacity="1" stroke-width="0" d=" M348,-284 C348,-284 348,284 348,284 C348,284 -348,284 -348,284 C-348,284 -348,-284 -348,-284 C-348,-284 348,-284 348,-284z" />
        </g>
      </g>
    </g>
    <mask id="__lottie_element_15647_1" mask-type="alpha">
      <use a0:href="#__lottie_element_15647" xmlns:a0="http://www.w3.org/1999/xlink" />
    </mask>
    <mask id="__lottie_element_15641_1" mask-type="alpha">
      <use a1:href="#__lottie_element_15641" xmlns:a1="http://www.w3.org/1999/xlink" />
    </mask>
    <g id="__lottie_element_15653">
      <g style="display: none;" transform="matrix(0.9995702505111694,0.029314372688531876,-0.029314372688531876,0.9995702505111694,499.98779296875,491.3081970214844)" opacity="1">
        <g opacity="1" transform="matrix(1,0,0,1,4,60)">
          <path fill="rgb(216,162,83)" fill-opacity="1" d=" M348,-284 C348,-284 348,284 348,284 C348,284 -348,284 -348,284 C-348,284 -348,-284 -348,-284 C-348,-284 348,-284 348,-284z" />
          <path stroke-linecap="butt" stroke-linejoin="miter" fill-opacity="0" stroke-miterlimit="4" stroke="rgb(0,0,0)" stroke-opacity="1" stroke-width="0" d=" M348,-284 C348,-284 348,284 348,284 C348,284 -348,284 -348,284 C-348,284 -348,-284 -348,-284 C-348,-284 348,-284 348,-284z" />
        </g>
      </g>
    </g>
    <mask id="__lottie_element_15653_1" mask-type="alpha">
      <use a2:href="#__lottie_element_15653" xmlns:a2="http://www.w3.org/1999/xlink" />
    </mask>
    <g id="__lottie_element_15659">
      <g style="display: none;" transform="matrix(0.9995702505111694,0.029314372688531876,-0.029314372688531876,0.9995702505111694,499.98779296875,491.3081970214844)" opacity="1">
        <g opacity="1" transform="matrix(1,0,0,1,4,60)">
          <path fill="rgb(216,162,83)" fill-opacity="1" d=" M348,-284 C348,-284 348,284 348,284 C348,284 -348,284 -348,284 C-348,284 -348,-284 -348,-284 C-348,-284 348,-284 348,-284z" />
          <path stroke-linecap="butt" stroke-linejoin="miter" fill-opacity="0" stroke-miterlimit="4" stroke="rgb(0,0,0)" stroke-opacity="1" stroke-width="0" d=" M348,-284 C348,-284 348,284 348,284 C348,284 -348,284 -348,284 C-348,284 -348,-284 -348,-284 C-348,-284 348,-284 348,-284z" />
        </g>
      </g>
    </g>
    <mask id="__lottie_element_15659_1" mask-type="alpha">
      <use a3:href="#__lottie_element_15659" xmlns:a3="http://www.w3.org/1999/xlink" />
    </mask>
    <g id="__lottie_element_15665">
      <g style="display: none;" transform="matrix(1,0,0,1,500,499.977294921875)" opacity="1">
        <g opacity="1" transform="matrix(1,0,0,1,4,60)">
          <path fill="rgb(216,162,83)" fill-opacity="1" d=" M348,-284 C348,-284 348,284 348,284 C348,284 -348,284 -348,284 C-348,284 -348,-284 -348,-284 C-348,-284 348,-284 348,-284z" />
          <path stroke-linecap="butt" stroke-linejoin="miter" fill-opacity="0" stroke-miterlimit="4" stroke="rgb(0,0,0)" stroke-opacity="1" stroke-width="0" d=" M348,-284 C348,-284 348,284 348,284 C348,284 -348,284 -348,284 C-348,284 -348,-284 -348,-284 C-348,-284 348,-284 348,-284z" />
        </g>
      </g>
    </g>
    <mask id="__lottie_element_15665_1" mask-type="alpha">
      <use a4:href="#__lottie_element_15665" xmlns:a4="http://www.w3.org/1999/xlink" />
    </mask>
    <g id="__lottie_element_15671">
      <g style="display: none;" transform="matrix(1,0,0,1,500,499.977294921875)" opacity="1">
        <g opacity="1" transform="matrix(1,0,0,1,4,60)">
          <path fill="rgb(216,162,83)" fill-opacity="1" d=" M348,-284 C348,-284 348,284 348,284 C348,284 -348,284 -348,284 C-348,284 -348,-284 -348,-284 C-348,-284 348,-284 348,-284z" />
          <path stroke-linecap="butt" stroke-linejoin="miter" fill-opacity="0" stroke-miterlimit="4" stroke="rgb(0,0,0)" stroke-opacity="1" stroke-width="0" d=" M348,-284 C348,-284 348,284 348,284 C348,284 -348,284 -348,284 C-348,284 -348,-284 -348,-284 C-348,-284 348,-284 348,-284z" />
        </g>
      </g>
    </g>
    <mask id="__lottie_element_15671_1" mask-type="alpha">
      <use a5:href="#__lottie_element_15671" xmlns:a5="http://www.w3.org/1999/xlink" />
    </mask>
  </defs>
  <g clip-path="url(#__lottie_element_15630)">
    <g style="display: block;" transform="matrix(1,0,0,1,105.00900268554688,100.2236328125)" opacity="1">
      <g opacity="1" transform="matrix(1,0,0,1,398.8330078125,398.8330078125)">
        <path stroke-linecap="butt" stroke-linejoin="miter" fill-opacity="0" stroke-miterlimit="10" stroke="rgb(0,0,0)" stroke-opacity="1" stroke-width="20" d=" M-290.0899963378906,-348.8320007324219 C-322.5320129394531,-348.8320007324219 -348.8320007324219,-322.5320129394531 -348.8320007324219,-290.0889892578125 C-348.8320007324219,-290.0889892578125 -348.8320007324219,290.0899963378906 -348.8320007324219,290.0899963378906 C-348.8320007324219,322.5329895019531 -322.5320129394531,348.8330078125 -290.0899963378906,348.8330078125 C-290.0899963378906,348.8330078125 290.0899963378906,348.8330078125 290.0899963378906,348.8330078125 C322.5329895019531,348.8330078125 348.8320007324219,322.5329895019531 348.8320007324219,290.0899963378906 C348.8320007324219,290.0899963378906 348.8320007324219,-290.0889892578125 348.8320007324219,-290.0889892578125 C348.8320007324219,-322.5320129394531 322.5329895019531,-348.8320007324219 290.0899963378906,-348.8320007324219 C290.0899963378906,-348.8320007324219 -290.0899963378906,-348.8320007324219 -290.0899963378906,-348.8320007324219z" />
      </g>
      <g opacity="1" transform="matrix(1,0,0,1,171.9669952392578,114.26000213623047)">
        <path fill="rgb(0,0,0)" fill-opacity="1" d=" M-43.279998779296875,-0.0010000000474974513 C-43.279998779296875,7.992000102996826 -49.71500015258789,14.425999641418457 -57.70600128173828,14.425999641418457 C-65.58399963378906,14.425999641418457 -72.13400268554688,7.992000102996826 -72.13400268554688,-0.0010000000474974513 C-72.13400268554688,-7.99399995803833 -65.58399963378906,-14.425999641418457 -57.70600128173828,-14.425999641418457 C-49.71500015258789,-14.425999641418457 -43.279998779296875,-7.99399995803833 -43.279998779296875,-0.0010000000474974513z M14.425999641418457,-0.0010000000474974513 C14.425999641418457,7.992000102996826 7.993000030517578,14.425999641418457 0.0010000000474974513,14.425999641418457 C-7.876999855041504,14.425999641418457 -14.425999641418457,7.992000102996826 -14.425999641418457,-0.0010000000474974513 C-14.425999641418457,-7.99399995803833 -7.876999855041504,-14.425999641418457 0.0010000000474974513,-14.425999641418457 C7.993000030517578,-14.425999641418457 14.425999641418457,-7.99399995803833 14.425999641418457,-0.0010000000474974513z M72.13400268554688,-0.0010000000474974513 C72.13400268554688,7.992000102996826 65.6989974975586,14.425999641418457 57.707000732421875,14.425999641418457 C49.83000183105469,14.425999641418457 43.279998779296875,7.992000102996826 43.279998779296875,-0.0010000000474974513 C43.279998779296875,-7.99399995803833 49.83000183105469,-14.425999641418457 57.707000732421875,-14.425999641418457 C65.6989974975586,-14.425999641418457 72.13400268554688,-7.99399995803833 72.13400268554688,-0.0010000000474974513z" />
      </g>
      <g opacity="1" transform="matrix(1,0,0,1,398.8320007324219,111.83100128173828)">
        <path stroke-linecap="butt" stroke-linejoin="miter" fill-opacity="0" stroke-miterlimit="10" stroke="rgb(0,0,0)" stroke-opacity="1" stroke-width="20" d=" M290.09100341796875,-61.83100128173828 C290.09100341796875,-61.83100128173828 -290.0889892578125,-61.83100128173828 -290.0889892578125,-61.83100128173828 C-322.5320129394531,-61.83100128173828 -348.8320007324219,-35.53099822998047 -348.8320007324219,-3.0880000591278076 C-348.8320007324219,-3.0880000591278076 -348.8320007324219,61.83100128173828 -348.8320007324219,61.83100128173828 C-348.8320007324219,61.83100128173828 348.8320007324219,61.83100128173828 348.8320007324219,61.83100128173828 C348.8320007324219,61.83100128173828 348.8320007324219,-3.0880000591278076 348.8320007324219,-3.0880000591278076 C348.8320007324219,-35.53099822998047 322.5329895019531,-61.83100128173828 290.09100341796875,-61.83100128173828z" />
      </g>
    </g>
    <g style="display: block;" transform="matrix(0.9190489053726196,0,0,0.9190489053726196,349.167724609375,327.6822814941406)" opacity="1">
      <g opacity="1" transform="matrix(1,0,0,1,160.92100524902344,160.9199981689453)">
        <path stroke-linecap="round" stroke-linejoin="round" fill-opacity="0" stroke="rgb(0,0,0)" stroke-opacity="1" stroke-width="20" d=" M110.9209976196289,0 C110.9209976196289,61.25899887084961 61.25899887084961,110.91999816894531 -0.0010000000474974513,110.91999816894531 C-61.2599983215332,110.91999816894531 -110.9209976196289,61.25899887084961 -110.9209976196289,0 C-110.9209976196289,-61.2599983215332 -61.2599983215332,-110.91999816894531 -0.0010000000474974513,-110.91999816894531 C61.25899887084961,-110.91999816894531 110.9209976196289,-61.2599983215332 110.9209976196289,0z" />
      </g>
      <g opacity="1" transform="matrix(1,0,0,1,160.9199981689453,160.9199981689453)">
        <path stroke-linecap="round" stroke-linejoin="round" fill-opacity="0" stroke="rgb(0,0,0)" stroke-opacity="1" stroke-width="20" d=" M61.55500030517578,-20.141000747680664 C61.55500030517578,-20.141000747680664 20.75,-20.141000747680664 20.75,-20.141000747680664 C20.75,-20.141000747680664 20.75,-60.94499969482422 20.75,-60.94499969482422 C20.75,-60.94499969482422 -20.750999450683594,-60.94499969482422 -20.750999450683594,-60.94499969482422 C-20.750999450683594,-60.94499969482422 -20.750999450683594,-20.141000747680664 -20.750999450683594,-20.141000747680664 C-20.750999450683594,-20.141000747680664 -61.55500030517578,-20.141000747680664 -61.55500030517578,-20.141000747680664 C-61.55500030517578,-20.141000747680664 -61.55500030517578,21.360000610351562 -61.55500030517578,21.360000610351562 C-61.55500030517578,21.360000610351562 -20.750999450683594,21.360000610351562 -20.750999450683594,21.360000610351562 C-20.750999450683594,21.360000610351562 -20.750999450683594,60.94499969482422 -20.750999450683594,60.94499969482422 C-20.750999450683594,60.94499969482422 20.75,60.94499969482422 20.75,60.94499969482422 C20.75,60.94499969482422 20.75,21.360000610351562 20.75,21.360000610351562 C20.75,21.360000610351562 61.55500030517578,21.360000610351562 61.55500030517578,21.360000610351562 C61.55500030517578,21.360000610351562 61.55500030517578,-20.141000747680664 61.55500030517578,-20.141000747680664z" />
      </g>
    </g>
    <g style="display: block;" mask="url(#__lottie_element_15641_1)">
      <g transform="matrix(1,0,0,1.1299999952316284,419.5329895019531,376.2606506347656)" opacity="1">
        <g opacity="1" transform="matrix(1,0,0,1,8.5,257.5)">
          <path fill="rgb(0,0,0)" fill-opacity="1" d=" M334.5,0 C334.5,4.693999767303467 330.6940002441406,8.5 326,8.5 C326,8.5 -185,8.5 -185,8.5 C-189.69400024414062,8.5 -193.5,4.693999767303467 -193.5,0 C-193.5,-4.693999767303467 -189.69400024414062,-8.5 -185,-8.5 C-185,-8.5 326,-8.5 326,-8.5 C330.6940002441406,-8.5 334.5,-4.693999767303467 334.5,0z" />
          <path stroke-linecap="butt" stroke-linejoin="miter" fill-opacity="0" stroke-miterlimit="4" stroke="rgb(0,0,0)" stroke-opacity="1" stroke-width="0" d=" M334.5,0 C334.5,4.693999767303467 330.6940002441406,8.5 326,8.5 C326,8.5 -185,8.5 -185,8.5 C-189.69400024414062,8.5 -193.5,4.693999767303467 -193.5,0 C-193.5,-4.693999767303467 -189.69400024414062,-8.5 -185,-8.5 C-185,-8.5 326,-8.5 326,-8.5 C330.6940002441406,-8.5 334.5,-4.693999767303467 334.5,0z" />
        </g>
      </g>
    </g>
    <g style="display: block;" mask="url(#__lottie_element_15647_1)">
      <g transform="matrix(1,0,0,1.1299999952316284,419.5329895019531,462.2606506347656)" opacity="1">
        <g opacity="1" transform="matrix(1,0,0,1,8.5,257.5)">
          <path fill="rgb(0,0,0)" fill-opacity="1" d=" M334.5,0 C334.5,4.693999767303467 330.6940002441406,8.5 326,8.5 C326,8.5 -185,8.5 -185,8.5 C-189.69400024414062,8.5 -193.5,4.693999767303467 -193.5,0 C-193.5,-4.693999767303467 -189.69400024414062,-8.5 -185,-8.5 C-185,-8.5 326,-8.5 326,-8.5 C330.6940002441406,-8.5 334.5,-4.693999767303467 334.5,0z" />
          <path stroke-linecap="butt" stroke-linejoin="miter" fill-opacity="0" stroke-miterlimit="4" stroke="rgb(0,0,0)" stroke-opacity="1" stroke-width="0" d=" M334.5,0 C334.5,4.693999767303467 330.6940002441406,8.5 326,8.5 C326,8.5 -185,8.5 -185,8.5 C-189.69400024414062,8.5 -193.5,4.693999767303467 -193.5,0 C-193.5,-4.693999767303467 -189.69400024414062,-8.5 -185,-8.5 C-185,-8.5 326,-8.5 326,-8.5 C330.6940002441406,-8.5 334.5,-4.693999767303467 334.5,0z" />
        </g>
      </g>
    </g>
    <g style="display: none;" mask="url(#__lottie_element_15653_1)">
      <g transform="matrix(0.9995702505111694,0.029314372688531876,-0.03312524035573006,1.1295143365859985,418.11932373046875,537.916259765625)" opacity="1">
        <g opacity="1" transform="matrix(1,0,0,1,8.5,257.5)">
          <path fill="rgb(0,0,0)" fill-opacity="1" d=" M334.5,0 C334.5,4.693999767303467 330.6940002441406,8.5 326,8.5 C326,8.5 -185,8.5 -185,8.5 C-189.69400024414062,8.5 -193.5,4.693999767303467 -193.5,0 C-193.5,-4.693999767303467 -189.69400024414062,-8.5 -185,-8.5 C-185,-8.5 326,-8.5 326,-8.5 C330.6940002441406,-8.5 334.5,-4.693999767303467 334.5,0z" />
          <path stroke-linecap="butt" stroke-linejoin="miter" fill-opacity="0" stroke-miterlimit="4" stroke="rgb(0,0,0)" stroke-opacity="1" stroke-width="0" d=" M334.5,0 C334.5,4.693999767303467 330.6940002441406,8.5 326,8.5 C326,8.5 -185,8.5 -185,8.5 C-189.69400024414062,8.5 -193.5,4.693999767303467 -193.5,0 C-193.5,-4.693999767303467 -189.69400024414062,-8.5 -185,-8.5 C-185,-8.5 326,-8.5 326,-8.5 C330.6940002441406,-8.5 334.5,-4.693999767303467 334.5,0z" />
        </g>
      </g>
    </g>
    <g style="display: none;" mask="url(#__lottie_element_15659_1)">
      <g transform="matrix(0.9995702505111694,0.029314372688531876,-0.03312524035573006,1.1295143365859985,415.37127685546875,631.6199951171875)" opacity="1">
        <g opacity="1" transform="matrix(1,0,0,1,8.5,257.5)">
          <path fill="rgb(0,0,0)" fill-opacity="1" d=" M334.5,0 C334.5,4.693999767303467 330.6940002441406,8.5 326,8.5 C326,8.5 -185,8.5 -185,8.5 C-189.69400024414062,8.5 -193.5,4.693999767303467 -193.5,0 C-193.5,-4.693999767303467 -189.69400024414062,-8.5 -185,-8.5 C-185,-8.5 326,-8.5 326,-8.5 C330.6940002441406,-8.5 334.5,-4.693999767303467 334.5,0z" />
          <path stroke-linecap="butt" stroke-linejoin="miter" fill-opacity="0" stroke-miterlimit="4" stroke="rgb(0,0,0)" stroke-opacity="1" stroke-width="0" d=" M334.5,0 C334.5,4.693999767303467 330.6940002441406,8.5 326,8.5 C326,8.5 -185,8.5 -185,8.5 C-189.69400024414062,8.5 -193.5,4.693999767303467 -193.5,0 C-193.5,-4.693999767303467 -189.69400024414062,-8.5 -185,-8.5 C-185,-8.5 326,-8.5 326,-8.5 C330.6940002441406,-8.5 334.5,-4.693999767303467 334.5,0z" />
        </g>
      </g>
    </g>
    <g style="display: none;" mask="url(#__lottie_element_15665_1)">
      <g transform="matrix(1,0,0,1.1299999952316284,419.5329895019531,376.7093200683594)" opacity="1">
        <g opacity="1" transform="matrix(1,0,0,1,8.5,257.5)">
          <path fill="rgb(0,0,0)" fill-opacity="1" d=" M334.5,0 C334.5,4.693999767303467 330.6940002441406,8.5 326,8.5 C326,8.5 -185,8.5 -185,8.5 C-189.69400024414062,8.5 -193.5,4.693999767303467 -193.5,0 C-193.5,-4.693999767303467 -189.69400024414062,-8.5 -185,-8.5 C-185,-8.5 326,-8.5 326,-8.5 C330.6940002441406,-8.5 334.5,-4.693999767303467 334.5,0z" />
          <path stroke-linecap="butt" stroke-linejoin="miter" fill-opacity="0" stroke-miterlimit="4" stroke="rgb(0,0,0)" stroke-opacity="1" stroke-width="0" d=" M334.5,0 C334.5,4.693999767303467 330.6940002441406,8.5 326,8.5 C326,8.5 -185,8.5 -185,8.5 C-189.69400024414062,8.5 -193.5,4.693999767303467 -193.5,0 C-193.5,-4.693999767303467 -189.69400024414062,-8.5 -185,-8.5 C-185,-8.5 326,-8.5 326,-8.5 C330.6940002441406,-8.5 334.5,-4.693999767303467 334.5,0z" />
        </g>
      </g>
    </g>
    <g style="display: none;" mask="url(#__lottie_element_15671_1)">
      <g transform="matrix(1,0,0,1.1299999952316284,419.5329895019531,462.7093200683594)" opacity="1">
        <g opacity="1" transform="matrix(1,0,0,1,8.5,257.5)">
          <path fill="rgb(0,0,0)" fill-opacity="1" d=" M334.5,0 C334.5,4.693999767303467 330.6940002441406,8.5 326,8.5 C326,8.5 -185,8.5 -185,8.5 C-189.69400024414062,8.5 -193.5,4.693999767303467 -193.5,0 C-193.5,-4.693999767303467 -189.69400024414062,-8.5 -185,-8.5 C-185,-8.5 326,-8.5 326,-8.5 C330.6940002441406,-8.5 334.5,-4.693999767303467 334.5,0z" />
          <path stroke-linecap="butt" stroke-linejoin="miter" fill-opacity="0" stroke-miterlimit="4" stroke="rgb(0,0,0)" stroke-opacity="1" stroke-width="0" d=" M334.5,0 C334.5,4.693999767303467 330.6940002441406,8.5 326,8.5 C326,8.5 -185,8.5 -185,8.5 C-189.69400024414062,8.5 -193.5,4.693999767303467 -193.5,0 C-193.5,-4.693999767303467 -189.69400024414062,-8.5 -185,-8.5 C-185,-8.5 326,-8.5 326,-8.5 C330.6940002441406,-8.5 334.5,-4.693999767303467 334.5,0z" />
        </g>
      </g>
    </g>
  </g>
</svg>